<?xml version="1.0" encoding="utf-8"?>
<!-- Generator: Adobe Illustrator 25.2.1, SVG Export Plug-In . SVG Version: 6.00 Build 0)  -->
<svg version="1.1" id="Camada_1" xmlns="http://www.w3.org/2000/svg" xmlns:xlink="http://www.w3.org/1999/xlink" x="0px" y="0px"
	 viewBox="0 0 26 23" style="enable-background:new 0 0 26 23;" xml:space="preserve">
<style type="text/css">
	.st0{fill:#FFFFFF;}
</style>
<path class="st0" d="M12.8,7.9l11.4-7.3C23.7,0.2,23,0,22.3,0H3.2C2.5,0,1.9,0.2,1.3,0.6L12.8,7.9z"/>
<path class="st0" d="M13.8,11.2c-0.2,0.2-0.5,0.3-0.7,0.3h0c0,0-0.1,0-0.1,0c0,0,0,0-0.1,0c0,0-0.1,0-0.1,0c0,0-0.1,0-0.1,0
	c0,0,0,0-0.1,0c0,0-0.1,0-0.1,0h0c-0.3,0-0.5-0.1-0.7-0.3L0,3.7v1.8v3.3v0.8v10.2C0,21.6,1.4,23,3.2,23h19.1c1.8,0,3.2-1.4,3.2-3.2
	V9.5V8.8V5.5V3.7L13.8,11.2z"/>
</svg>
