<?xml version="1.0" encoding="utf-8"?>
<!-- Generator: Adobe Illustrator 25.2.1, SVG Export Plug-In . SVG Version: 6.00 Build 0)  -->
<svg version="1.1" id="Camada_1" xmlns="http://www.w3.org/2000/svg" xmlns:xlink="http://www.w3.org/1999/xlink" x="0px" y="0px"
	 viewBox="0 0 21 24" style="enable-background:new 0 0 21 24;" xml:space="preserve">
<style type="text/css">
	.st0{fill:#FFFFFF;}
</style>
<path class="st0" d="M10.2,13.5c3.7,0,6.7-2.9,6.7-6.5c0-3.6-3-6.5-6.7-6.5c-3.7,0-6.7,2.9-6.7,6.5C3.5,10.5,6.5,13.5,10.2,13.5z"/>
<path class="st0" d="M20.2,20.4c-1.7-3.7-5.5-6.3-10-6.3c-4.2,0-7.9,2.3-9.7,5.8C0.2,20.3,0,20.8,0,21.4c0,1.4,1.1,2.4,2.5,2.4h15.4
	c1.4,0,2.5-1.1,2.5-2.4C20.4,21,20.3,20.7,20.2,20.4z"/>
</svg>
